<?xml version="1.0" encoding="UTF-8"?>
<svg xmlns="http://www.w3.org/2000/svg" xmlns:xlink="http://www.w3.org/1999/xlink" width="200px" height="200px" viewBox="0 0 200 200" version="1.1">
<g id="surface1">
<path style=" stroke:none;fill-rule:nonzero;fill:rgb(0%,0%,0%);fill-opacity:1;" d="M 137.5 200.101562 C 91.667969 200.101562 45.882812 200.101562 0.101562 200.101562 C 0.101562 133.433594 0.101562 66.765625 0.101562 0.101562 C 66.765625 0.101562 133.433594 0.101562 200.101562 0.101562 C 200.101562 66.765625 200.101562 133.433594 200.101562 200.101562 C 179.25 200.101562 158.398438 200.101562 137.5 200.101562 M 137.023438 143.320312 C 136.914062 142.578125 136.796875 141.839844 136.699219 141.097656 C 136.183594 137.21875 135.636719 133.34375 135.183594 129.460938 C 134.769531 125.9375 134.417969 122.40625 134.117188 118.871094 C 133.839844 115.601562 133.65625 112.324219 133.441406 109.050781 C 133.382812 108.195312 133.363281 107.335938 133.324219 106.425781 C 134.453125 106.496094 135.519531 106.515625 136.578125 106.640625 C 141.890625 107.265625 147.007812 108.65625 151.972656 110.640625 C 152.554688 110.875 153.175781 111.054688 153.792969 111.128906 C 154.898438 111.257812 155.53125 110.742188 155.699219 109.636719 C 155.78125 109.113281 155.785156 108.574219 155.769531 108.046875 C 155.738281 107.03125 155.648438 106.015625 155.617188 105 C 155.441406 99.183594 155.585938 93.371094 155.929688 87.5625 C 155.953125 87.214844 155.9375 86.863281 155.898438 86.515625 C 155.777344 85.433594 155.214844 84.953125 154.132812 84.992188 C 153.917969 85 153.691406 85.011719 153.496094 85.082031 C 152.570312 85.40625 151.648438 85.726562 150.738281 86.085938 C 145.898438 88.007812 140.890625 89.21875 135.703125 89.667969 C 134.867188 89.742188 134.027344 89.75 133.128906 89.792969 C 133.492188 79.078125 134.460938 68.503906 135.496094 57.898438 C 137.359375 57.785156 139.171875 57.667969 140.980469 57.570312 C 144.769531 57.371094 148.539062 57.464844 152.289062 58.097656 C 156.855469 58.867188 161.179688 60.304688 165.1875 62.652344 C 165.671875 62.9375 166.199219 63.167969 166.734375 63.339844 C 168.210938 63.808594 169.289062 63.179688 169.597656 61.671875 C 169.707031 61.140625 169.746094 60.582031 169.734375 60.035156 C 169.664062 56.4375 169.507812 52.839844 169.507812 49.242188 C 169.503906 46.429688 169.695312 43.617188 169.78125 40.800781 C 169.8125 39.691406 169.875 38.570312 169.78125 37.464844 C 169.683594 36.347656 169.070312 35.46875 167.945312 35.152344 C 167.316406 34.976562 166.625 34.921875 165.972656 34.972656 C 162.386719 35.25 158.808594 35.679688 155.21875 35.863281 C 150.546875 36.101562 145.863281 36.21875 141.183594 36.28125 C 130.179688 36.421875 119.191406 36.125 108.234375 35.027344 C 107.449219 34.949219 106.628906 34.957031 105.855469 35.101562 C 104.734375 35.3125 104.105469 36.09375 103.882812 37.222656 C 103.699219 38.167969 103.953125 39.070312 104.085938 39.992188 C 105.070312 46.707031 106.15625 53.414062 106.988281 60.148438 C 107.675781 65.71875 108.179688 71.3125 108.550781 76.910156 C 108.90625 82.328125 109.050781 87.761719 109.167969 93.191406 C 109.296875 99.261719 109.042969 105.324219 108.613281 111.375 C 108.339844 115.246094 108.042969 119.117188 107.65625 122.976562 C 107.273438 126.769531 106.804688 130.554688 106.296875 134.332031 C 105.800781 137.992188 105.214844 141.640625 104.660156 145.292969 C 104.402344 146.972656 104.089844 148.640625 103.859375 150.320312 C 103.617188 152.066406 104.496094 153.445312 106.066406 153.765625 C 106.660156 153.886719 107.296875 153.882812 107.902344 153.824219 C 109.457031 153.683594 111.007812 153.386719 112.566406 153.316406 C 116.007812 153.15625 119.457031 153.035156 122.90625 153.019531 C 125.96875 153.007812 129.027344 153.238281 132.066406 153.675781 C 133.101562 153.828125 134.148438 153.980469 135.1875 153.976562 C 136.625 153.972656 137.734375 153.109375 138.035156 151.832031 C 138.167969 151.261719 138.210938 150.632812 138.125 150.054688 C 137.800781 147.832031 137.40625 145.621094 137.023438 143.320312 M 74.085938 127.332031 C 72.699219 127.453125 71.3125 127.679688 69.929688 127.675781 C 67.863281 127.671875 65.800781 127.515625 63.738281 127.402344 C 62.832031 127.351562 62.835938 127.332031 62.699219 126.386719 C 62.691406 126.335938 62.671875 126.292969 62.664062 126.242188 C 62.515625 125.195312 62.359375 124.144531 62.21875 123.097656 C 62.101562 122.238281 62.003906 121.375 61.894531 120.519531 C 61.765625 119.546875 61.609375 118.582031 61.507812 117.609375 C 61.378906 116.433594 61.300781 115.257812 61.191406 114.082031 C 61.066406 112.726562 60.921875 111.371094 60.804688 110.015625 C 60.71875 109.011719 60.65625 108.007812 60.601562 107.003906 C 60.527344 105.585938 60.445312 104.164062 60.40625 102.742188 C 60.359375 101.152344 60.335938 99.558594 60.339844 97.96875 C 60.347656 93.808594 60.363281 89.648438 60.410156 85.488281 C 60.429688 83.714844 60.523438 81.945312 60.597656 80.175781 C 60.652344 78.820312 60.730469 77.46875 60.796875 76.113281 C 60.863281 74.757812 60.929688 73.40625 61 72.050781 C 61.027344 71.558594 61.0625 71.0625 61.109375 70.570312 C 61.207031 69.472656 61.320312 68.378906 61.417969 67.277344 C 61.488281 66.476562 61.527344 65.671875 61.609375 64.871094 C 61.730469 63.730469 61.882812 62.589844 62.007812 61.449219 C 62.117188 60.453125 62.191406 59.457031 62.316406 58.464844 C 62.460938 57.3125 62.648438 56.167969 62.804688 55.019531 C 62.980469 53.738281 63.117188 52.453125 63.3125 51.175781 C 63.554688 49.601562 63.835938 48.027344 64.105469 46.457031 C 64.359375 44.980469 64.644531 43.511719 64.875 42.03125 C 65.082031 40.707031 65.316406 39.375 65.378906 38.039062 C 65.472656 35.992188 63.648438 34.550781 61.613281 34.949219 C 58.988281 35.457031 56.335938 35.792969 53.671875 35.875 C 50.449219 35.980469 47.222656 35.929688 43.996094 35.902344 C 42.558594 35.890625 41.121094 35.777344 39.683594 35.6875 C 39.027344 35.648438 38.378906 35.546875 37.726562 35.476562 C 36.46875 35.347656 35.210938 35.15625 33.949219 35.121094 C 32.894531 35.089844 32.089844 35.628906 31.574219 36.582031 C 31.160156 37.347656 31.140625 38.179688 31.222656 38.988281 C 31.34375 40.199219 31.601562 41.398438 31.804688 42.601562 C 32.136719 44.574219 32.488281 46.542969 32.800781 48.519531 C 33.089844 50.335938 33.347656 52.160156 33.59375 53.988281 C 33.878906 56.109375 34.140625 58.238281 34.402344 60.363281 C 34.578125 61.828125 34.746094 63.296875 34.898438 64.761719 C 35.078125 66.507812 35.242188 68.257812 35.402344 70.007812 C 35.511719 71.199219 35.609375 72.394531 35.699219 73.589844 C 35.808594 75.019531 35.90625 76.449219 36 77.878906 C 36.070312 78.996094 36.136719 80.117188 36.191406 81.238281 C 36.265625 82.742188 36.34375 84.246094 36.386719 85.75 C 36.445312 87.675781 36.472656 89.601562 36.511719 91.527344 C 36.523438 92.195312 36.558594 92.859375 36.546875 93.523438 C 36.46875 97.460938 36.390625 101.398438 36.296875 105.332031 C 36.253906 107.039062 36.171875 108.742188 36.097656 110.445312 C 36.039062 111.863281 35.964844 113.285156 35.894531 114.703125 C 35.871094 115.148438 35.835938 115.589844 35.796875 116.035156 C 35.707031 117.179688 35.609375 118.328125 35.515625 119.472656 C 35.4375 120.375 35.375 121.28125 35.285156 122.183594 C 35.207031 122.996094 35.085938 123.804688 35.003906 124.621094 C 34.890625 125.695312 34.8125 126.777344 34.695312 127.851562 C 34.582031 128.84375 34.433594 129.828125 34.308594 130.820312 C 34.164062 131.96875 34.042969 133.125 33.882812 134.273438 C 33.707031 135.519531 33.5 136.761719 33.304688 138.007812 C 33.058594 139.585938 32.820312 141.164062 32.558594 142.742188 C 32.355469 143.980469 32.125 145.21875 31.902344 146.457031 C 31.679688 147.6875 31.390625 148.910156 31.234375 150.148438 C 31.082031 151.339844 31.195312 152.507812 32.222656 153.355469 C 32.820312 153.84375 33.539062 154.058594 34.292969 154.007812 C 35.789062 153.90625 37.285156 153.730469 38.78125 153.609375 C 40.203125 153.492188 41.628906 153.394531 43.054688 153.300781 C 44.730469 153.195312 46.410156 153.089844 48.085938 153.003906 C 49.621094 152.921875 51.152344 152.855469 52.6875 152.804688 C 54.109375 152.753906 55.535156 152.722656 56.960938 152.703125 C 58.507812 152.679688 60.058594 152.652344 61.605469 152.667969 C 65.296875 152.699219 68.988281 152.753906 72.683594 152.800781 C 74.390625 152.824219 76.101562 152.839844 77.808594 152.890625 C 79.480469 152.941406 81.148438 153.03125 82.820312 153.105469 C 83.429688 153.132812 84.039062 153.160156 84.648438 153.210938 C 85.695312 153.296875 86.734375 153.410156 87.78125 153.496094 C 89.054688 153.605469 90.332031 153.726562 91.609375 153.796875 C 92.792969 153.863281 93.976562 153.933594 95.15625 153.886719 C 96.257812 153.84375 97.269531 152.878906 97.382812 151.789062 C 97.488281 150.75 97.503906 149.699219 97.46875 148.65625 C 97.425781 147.285156 97.265625 145.914062 97.207031 144.542969 C 97.148438 143.101562 97.136719 141.660156 97.136719 140.21875 C 97.136719 137.707031 97.152344 135.195312 97.183594 132.683594 C 97.203125 131.089844 97.261719 129.496094 97.304688 127.902344 C 97.335938 126.757812 97.367188 125.613281 97.402344 124.46875 C 97.402344 124.386719 97.421875 124.304688 97.421875 124.222656 C 97.417969 123.101562 97.507812 121.972656 97.378906 120.867188 C 97.242188 119.707031 95.949219 118.820312 94.824219 118.921875 C 93.84375 119.011719 92.96875 119.347656 92.175781 119.941406 C 91.441406 120.488281 90.695312 121.019531 89.933594 121.527344 C 85.140625 124.707031 79.878906 126.613281 74.085938 127.332031 Z M 74.085938 127.332031 "/>
<path style=" stroke:none;fill-rule:nonzero;fill:rgb(96.862745%,97.254902%,93.725491%);fill-opacity:1;" d="M 137.03125 143.363281 C 137.40625 145.621094 137.800781 147.832031 138.125 150.054688 C 138.210938 150.632812 138.167969 151.261719 138.035156 151.832031 C 137.734375 153.109375 136.625 153.972656 135.1875 153.976562 C 134.148438 153.980469 133.101562 153.828125 132.066406 153.675781 C 129.027344 153.238281 125.96875 153.007812 122.90625 153.019531 C 119.457031 153.035156 116.007812 153.15625 112.566406 153.316406 C 111.007812 153.386719 109.457031 153.683594 107.902344 153.824219 C 107.296875 153.882812 106.660156 153.886719 106.066406 153.765625 C 104.496094 153.445312 103.617188 152.066406 103.859375 150.320312 C 104.089844 148.640625 104.402344 146.972656 104.660156 145.292969 C 105.214844 141.640625 105.800781 137.992188 106.296875 134.332031 C 106.804688 130.554688 107.273438 126.769531 107.65625 122.976562 C 108.042969 119.117188 108.339844 115.246094 108.613281 111.375 C 109.042969 105.324219 109.296875 99.261719 109.167969 93.191406 C 109.050781 87.761719 108.90625 82.328125 108.550781 76.910156 C 108.179688 71.3125 107.675781 65.71875 106.988281 60.148438 C 106.15625 53.414062 105.070312 46.707031 104.085938 39.992188 C 103.953125 39.070312 103.699219 38.167969 103.882812 37.222656 C 104.105469 36.09375 104.734375 35.3125 105.855469 35.101562 C 106.628906 34.957031 107.449219 34.949219 108.234375 35.027344 C 119.191406 36.125 130.179688 36.421875 141.183594 36.28125 C 145.863281 36.21875 150.546875 36.101562 155.21875 35.863281 C 158.808594 35.679688 162.386719 35.25 165.972656 34.972656 C 166.625 34.921875 167.316406 34.976562 167.945312 35.152344 C 169.070312 35.46875 169.683594 36.347656 169.78125 37.464844 C 169.875 38.570312 169.8125 39.691406 169.78125 40.800781 C 169.695312 43.617188 169.503906 46.429688 169.507812 49.242188 C 169.507812 52.839844 169.664062 56.4375 169.734375 60.035156 C 169.746094 60.582031 169.707031 61.140625 169.597656 61.671875 C 169.289062 63.179688 168.210938 63.808594 166.734375 63.339844 C 166.199219 63.167969 165.671875 62.9375 165.1875 62.652344 C 161.179688 60.304688 156.855469 58.867188 152.289062 58.097656 C 148.539062 57.464844 144.769531 57.371094 140.980469 57.570312 C 139.171875 57.667969 137.359375 57.785156 135.496094 57.898438 C 134.460938 68.503906 133.492188 79.078125 133.128906 89.792969 C 134.027344 89.75 134.867188 89.742188 135.703125 89.667969 C 140.890625 89.21875 145.898438 88.007812 150.738281 86.085938 C 151.648438 85.726562 152.570312 85.40625 153.496094 85.082031 C 153.691406 85.011719 153.917969 85 154.132812 84.992188 C 155.214844 84.953125 155.777344 85.433594 155.898438 86.515625 C 155.9375 86.863281 155.953125 87.214844 155.929688 87.5625 C 155.585938 93.371094 155.441406 99.183594 155.617188 105 C 155.648438 106.015625 155.738281 107.03125 155.769531 108.046875 C 155.785156 108.574219 155.78125 109.113281 155.699219 109.636719 C 155.53125 110.742188 154.898438 111.257812 153.792969 111.128906 C 153.175781 111.054688 152.554688 110.875 151.972656 110.640625 C 147.007812 108.65625 141.890625 107.265625 136.578125 106.640625 C 135.519531 106.515625 134.453125 106.496094 133.324219 106.425781 C 133.363281 107.335938 133.382812 108.195312 133.441406 109.050781 C 133.65625 112.324219 133.839844 115.601562 134.117188 118.871094 C 134.417969 122.40625 134.769531 125.9375 135.183594 129.460938 C 135.636719 133.34375 136.183594 137.21875 136.699219 141.097656 C 136.796875 141.839844 136.914062 142.578125 137.03125 143.363281 Z M 137.03125 143.363281 "/>
<path style=" stroke:none;fill-rule:nonzero;fill:rgb(96.862745%,97.254902%,93.725491%);fill-opacity:1;" d="M 74.128906 127.324219 C 79.878906 126.613281 85.140625 124.707031 89.933594 121.527344 C 90.695312 121.019531 91.441406 120.488281 92.175781 119.941406 C 92.96875 119.347656 93.84375 119.011719 94.824219 118.921875 C 95.949219 118.820312 97.242188 119.707031 97.378906 120.867188 C 97.507812 121.972656 97.417969 123.101562 97.421875 124.222656 C 97.421875 124.304688 97.402344 124.386719 97.402344 124.46875 C 97.367188 125.613281 97.335938 126.757812 97.304688 127.902344 C 97.261719 129.496094 97.203125 131.089844 97.183594 132.683594 C 97.152344 135.195312 97.136719 137.707031 97.136719 140.21875 C 97.136719 141.660156 97.148438 143.101562 97.207031 144.542969 C 97.265625 145.914062 97.425781 147.285156 97.46875 148.65625 C 97.503906 149.699219 97.488281 150.75 97.382812 151.789062 C 97.269531 152.878906 96.257812 153.84375 95.15625 153.886719 C 93.976562 153.933594 92.792969 153.863281 91.609375 153.796875 C 90.332031 153.726562 89.054688 153.605469 87.78125 153.496094 C 86.734375 153.410156 85.695312 153.296875 84.648438 153.210938 C 84.039062 153.160156 83.429688 153.132812 82.820312 153.105469 C 81.148438 153.03125 79.480469 152.941406 77.808594 152.890625 C 76.101562 152.839844 74.390625 152.824219 72.683594 152.800781 C 68.988281 152.753906 65.296875 152.699219 61.605469 152.667969 C 60.058594 152.652344 58.507812 152.679688 56.960938 152.703125 C 55.535156 152.722656 54.109375 152.753906 52.6875 152.804688 C 51.152344 152.855469 49.621094 152.921875 48.085938 153.003906 C 46.410156 153.089844 44.730469 153.195312 43.054688 153.300781 C 41.628906 153.394531 40.203125 153.492188 38.78125 153.609375 C 37.285156 153.730469 35.789062 153.90625 34.292969 154.007812 C 33.539062 154.058594 32.820312 153.84375 32.222656 153.355469 C 31.195312 152.507812 31.082031 151.339844 31.234375 150.148438 C 31.390625 148.910156 31.679688 147.6875 31.902344 146.457031 C 32.125 145.21875 32.355469 143.980469 32.558594 142.742188 C 32.820312 141.164062 33.058594 139.585938 33.304688 138.007812 C 33.5 136.761719 33.707031 135.519531 33.882812 134.273438 C 34.042969 133.125 34.164062 131.96875 34.308594 130.820312 C 34.433594 129.828125 34.582031 128.84375 34.695312 127.851562 C 34.8125 126.777344 34.890625 125.695312 35.003906 124.621094 C 35.085938 123.804688 35.207031 122.996094 35.285156 122.183594 C 35.375 121.28125 35.4375 120.375 35.515625 119.472656 C 35.609375 118.328125 35.707031 117.179688 35.796875 116.035156 C 35.835938 115.589844 35.871094 115.148438 35.894531 114.703125 C 35.964844 113.285156 36.039062 111.863281 36.097656 110.445312 C 36.171875 108.742188 36.253906 107.039062 36.296875 105.332031 C 36.390625 101.398438 36.46875 97.460938 36.546875 93.523438 C 36.558594 92.859375 36.523438 92.195312 36.511719 91.527344 C 36.472656 89.601562 36.445312 87.675781 36.386719 85.75 C 36.34375 84.246094 36.265625 82.742188 36.191406 81.238281 C 36.136719 80.117188 36.070312 78.996094 36 77.878906 C 35.90625 76.449219 35.808594 75.019531 35.699219 73.589844 C 35.609375 72.394531 35.511719 71.199219 35.402344 70.007812 C 35.242188 68.257812 35.078125 66.507812 34.898438 64.761719 C 34.746094 63.296875 34.578125 61.828125 34.402344 60.363281 C 34.140625 58.238281 33.878906 56.109375 33.59375 53.988281 C 33.347656 52.160156 33.089844 50.335938 32.800781 48.519531 C 32.488281 46.542969 32.136719 44.574219 31.804688 42.601562 C 31.601562 41.398438 31.34375 40.199219 31.222656 38.988281 C 31.140625 38.179688 31.160156 37.347656 31.574219 36.582031 C 32.089844 35.628906 32.894531 35.089844 33.949219 35.121094 C 35.210938 35.15625 36.46875 35.347656 37.726562 35.476562 C 38.378906 35.546875 39.027344 35.648438 39.683594 35.6875 C 41.121094 35.777344 42.558594 35.890625 43.996094 35.902344 C 47.222656 35.929688 50.449219 35.980469 53.671875 35.875 C 56.335938 35.792969 58.988281 35.457031 61.613281 34.949219 C 63.648438 34.550781 65.472656 35.992188 65.378906 38.039062 C 65.316406 39.375 65.082031 40.707031 64.875 42.03125 C 64.644531 43.511719 64.359375 44.980469 64.105469 46.457031 C 63.835938 48.027344 63.554688 49.601562 63.3125 51.175781 C 63.117188 52.453125 62.980469 53.738281 62.804688 55.019531 C 62.648438 56.167969 62.460938 57.3125 62.316406 58.464844 C 62.191406 59.457031 62.117188 60.453125 62.007812 61.449219 C 61.882812 62.589844 61.730469 63.730469 61.609375 64.871094 C 61.527344 65.671875 61.488281 66.476562 61.417969 67.277344 C 61.320312 68.378906 61.207031 69.472656 61.109375 70.570312 C 61.0625 71.0625 61.027344 71.558594 61 72.050781 C 60.929688 73.40625 60.863281 74.757812 60.796875 76.113281 C 60.730469 77.46875 60.652344 78.820312 60.597656 80.175781 C 60.523438 81.945312 60.429688 83.714844 60.410156 85.488281 C 60.363281 89.648438 60.347656 93.808594 60.339844 97.96875 C 60.335938 99.558594 60.359375 101.152344 60.40625 102.742188 C 60.445312 104.164062 60.527344 105.585938 60.601562 107.003906 C 60.65625 108.007812 60.71875 109.011719 60.804688 110.015625 C 60.921875 111.371094 61.066406 112.726562 61.191406 114.082031 C 61.300781 115.257812 61.378906 116.433594 61.507812 117.609375 C 61.609375 118.582031 61.765625 119.546875 61.894531 120.519531 C 62.003906 121.375 62.101562 122.238281 62.21875 123.097656 C 62.359375 124.144531 62.515625 125.195312 62.664062 126.242188 C 62.671875 126.292969 62.691406 126.335938 62.699219 126.386719 C 62.835938 127.332031 62.832031 127.351562 63.738281 127.402344 C 65.800781 127.515625 67.863281 127.671875 69.929688 127.675781 C 71.3125 127.679688 72.699219 127.453125 74.128906 127.324219 Z M 74.128906 127.324219 "/>
</g>
</svg>
